<?xml version="1.0" encoding="utf-8"?>
<!-- Generator: Adobe Illustrator 27.1.1, SVG Export Plug-In . SVG Version: 6.00 Build 0)  -->
<svg version="1.1" id="Layer_1" xmlns="http://www.w3.org/2000/svg" xmlns:xlink="http://www.w3.org/1999/xlink" x="0px" y="0px"
	 viewBox="0 0 1920 320.33" style="enable-background:new 0 0 1920 320.33;" xml:space="preserve">
<style type="text/css">
	.st0{fill:#303030;}
</style>
<path class="st0" d="M930.1,188.46c-28.75-12.14-57.72-21.42-86.91-28.24c-10.14-12.24-21.79-22.66-34.78-31.15
	c-12.36-29.78-54.28-49.85-85.29-47.53c-3.42,0.26-3.45,5.63,0,5.37c25.31-1.9,61.84,13.55,76.52,36.84
	c-6.58-3.68-13.45-6.94-20.66-9.65c-3.24-1.21-4.64,3.97-1.43,5.18c6.32,2.37,12.38,5.17,18.19,8.35
	c-25.76,1-61.11-11.33-65.68-38.72c-0.57-3.4-5.74-1.96-5.18,1.43c5.48,32.79,50.16,45.98,78.73,41.92
	c11.34,7.18,21.58,15.96,30.74,26.02c-50.97-11.01-102.62-14.52-154.98-11.91c0.31-1.76-1.01-3.83-3.22-3.14
	c-4.27,1.33-8.5,2.75-12.73,4.16c-24.48,1.78-49.11,4.77-73.9,8.97c-17.67,2.99-35.45,6.28-53.32,9.56
	c-12.7-4.91-25.54-9.23-38.53-13.05c-7.65-12.73-23.01-18.28-36.47-23.21c-20.36-7.46-41.47-10.42-63.07-9.99
	c-1.74,0.03-2.6,1.41-2.59,2.77c-0.78,0.76-1.17,1.92-0.52,3.16c17.9,34.4,62.7,42.3,97.36,33.18c0.89-0.23,1.42-0.77,1.69-1.42
	c0.12,0.03,0.24,0.08,0.37,0.12c0.51,0.44,1.12,0.6,1.73,0.54c9.96,2.92,19.81,6.24,29.6,9.81
	c-91.75,16.74-185.31,31.72-275.19,4.46c-17.93-33.02-51.78-45.55-85.98-55.7c-1.35-0.4-2.98,0.48-3.3,1.88
	c-10.11,43.58,52.7,61.49,85.04,58.06c18.83,5.9,37.86,10.06,57.04,12.61c-12.82,1.44-25.29,4.26-37.36,8.42
	c-0.43-0.52-1.07-0.88-1.92-0.92c-34.48-1.64-66.82,7.3-95.97,25.68c-1.74,1.1-1.72,3.53,0,4.64c36.76,23.5,79.46,11.27,102.13-24.9
	c0.06-0.1,0.06-0.19,0.11-0.29c16.73-5.48,34.2-8.41,52.49-8.47c1.37,0,2.18-0.86,2.46-1.89c75.46,5.76,152.67-9.16,227.27-22.98
	c30.7-5.69,61.51-11.04,92.49-14.64c-14.18,5.16-28.2,10.74-41.98,16.95c-4.06,1.83-8.14,3.68-12.14,5.67
	c-0.54-0.9-1.53-1.48-2.85-1.08c-15.08,4.62-30.53,9.52-43.57,18.68c-13.22,9.28-20.55,21.95-26.99,36.47
	c-0.8,1.79,0.11,4.05,2.32,4.04c31.28-0.14,71.41-20.09,75.81-54.26c1.02-0.55,2-1.16,3.06-1.66
	c22.51-10.67,45.88-19.45,69.56-27.15c22.54-1.91,45.17-2.71,67.9-1.81c34.98,1.38,69.56,6.42,103.41,14.59
	c0.71,0.72,1.53,0.84,2.28,0.58c29.14,7.16,57.74,16.6,85.5,28.32C930.54,194.42,933.28,189.8,930.1,188.46z M400.95,125.05
	c15.59-0.1,30.9,1.48,46.02,5.66c13.07,3.61,31.67,8.96,42.05,19.74c-11.89-3.25-23.88-6.15-36.05-8.49
	c-3.38-0.65-4.82,4.52-1.43,5.18c11.28,2.17,22.4,4.85,33.44,7.8C454.37,161.01,417.44,153.58,400.95,125.05z M174.84,224.59
	c24.67-14.67,51.33-22.43,79.82-22.7c-8.82,3.74-17.45,8.12-25.8,13.31c-2.93,1.82-0.24,6.47,2.71,4.64
	c9.8-6.09,19.92-11.1,30.33-15.13C240.95,233,206.19,242.14,174.84,224.59z M205.16,166.77c-9.4-3.37-19.37-8.6-26.84-15.33
	c-5.38-4.85-21.1-26.01-7.01-27.26c5.1-0.45,14.09,4.43,18.86,6.23c7.73,2.9,15.22,6.22,22.34,10.39
	c12.53,7.34,22.49,16.96,30.13,28.97c-6.63-2.2-13.25-4.6-19.84-7.3c-3.2-1.31-4.59,3.88-1.43,5.18c3.55,1.45,7.13,2.64,10.69,3.95
	C222.94,171.33,213.93,169.92,205.16,166.77z M524.14,228.93c6.26-13.22,13.74-24.45,26.64-32.66c8.39-5.34,17.7-8.98,27.15-12.11
	c-0.54,0.4-1.13,0.73-1.66,1.15c-9.42,7.32-16.07,16.65-26.58,22.8c-2.98,1.74-0.28,6.39,2.71,4.64
	c13.91-8.13,24.07-20.15,37.33-28.96C583.57,211.2,550.45,227.24,524.14,228.93z"/>
<path class="st0" d="M1655.91,196.62c-0.85,0.04-1.49,0.4-1.92,0.92c-12.07-4.16-24.54-6.98-37.37-8.42
	c19.19-2.55,38.22-6.71,57.05-12.61c32.35,3.44,95.15-14.47,85.05-58.06c-0.32-1.39-1.95-2.28-3.3-1.88
	c-34.2,10.15-68.05,22.68-85.98,55.7c-89.86,27.26-183.47,12.31-275.21-4.45c9.8-3.57,19.66-6.89,29.62-9.82
	c0.62,0.06,1.23-0.1,1.74-0.54c0.12-0.04,0.24-0.08,0.37-0.11c0.27,0.64,0.8,1.19,1.69,1.42c34.66,9.11,79.45,1.22,97.36-33.18
	c0.64-1.24,0.25-2.39-0.53-3.16c0.01-1.35-0.85-2.73-2.59-2.77c-21.61-0.43-42.7,2.53-63.07,9.99
	c-13.48,4.94-28.82,10.47-36.47,23.21c-13,3.82-25.85,8.14-38.56,13.06c-17.86-3.28-35.63-6.57-53.29-9.57
	c-24.81-4.21-49.45-7.2-73.95-8.99c-4.22-1.4-8.43-2.81-12.68-4.14c-2.2-0.68-3.52,1.36-3.22,3.12
	c-52.35-2.61-104,0.91-154.97,11.92c9.15-10.06,19.39-18.83,30.73-26.01c28.6,4.07,73.25-9.12,78.73-41.92
	c0.57-3.38-4.61-4.83-5.18-1.43c-4.57,27.39-39.92,39.72-65.68,38.72c5.81-3.18,11.87-5.98,18.19-8.35c3.21-1.2,1.82-6.4-1.43-5.18
	c-7.21,2.7-14.07,5.96-20.66,9.64c14.71-23.3,51.35-38.73,76.52-36.84c3.45,0.26,3.43-5.11,0-5.37
	c-31.03-2.33-72.93,17.74-85.29,47.53c-12.99,8.49-24.64,18.91-34.77,31.15c-29.2,6.83-58.17,16.11-86.92,28.25
	c-3.17,1.34-0.44,5.97,2.71,4.64c27.75-11.72,56.33-21.17,85.46-28.33c0.77,0.29,1.64,0.17,2.37-0.61
	c32.6-7.86,65.88-12.8,99.56-14.37c24.06-1.12,48-0.33,71.84,1.68c23.63,7.69,46.96,16.45,69.42,27.11
	c1.07,0.51,2.04,1.11,3.06,1.66c4.4,34.17,44.53,54.11,75.81,54.25c2.21,0.01,3.11-2.25,2.32-4.04
	c-6.44-14.51-13.79-27.16-26.99-36.47c-13.01-9.18-28.51-14.07-43.57-18.68c-1.31-0.4-2.31,0.18-2.85,1.08
	c-4-2-8.08-3.85-12.14-5.68c-13.73-6.19-27.7-11.76-41.84-16.9c30.92,3.59,61.69,8.92,92.35,14.59
	c74.61,13.82,151.81,28.74,227.27,22.98c0.28,1.03,1.08,1.88,2.46,1.89c18.3,0.06,35.76,2.98,52.49,8.46c0.05,0.1,0.05,0.2,0.11,0.3
	c22.68,36.18,65.36,48.41,102.14,24.9c1.72-1.1,1.74-3.54,0-4.64C1722.73,203.91,1690.38,194.98,1655.91,196.62z M1519.08,125
	c-16.47,28.55-53.44,36.01-84.07,29.94c11.04-2.95,22.16-5.63,33.44-7.8c3.39-0.65,1.95-5.83-1.43-5.18
	c-12.3,2.37-24.41,5.29-36.42,8.59C1448.98,129.29,1493.51,124.84,1519.08,125z M1369.22,196.27c12.84,8.18,20.38,19.47,26.64,32.66
	c-26.31-1.7-59.42-17.73-65.59-45.15c13.28,8.82,23.4,20.81,37.33,28.96c2.99,1.75,5.69-2.89,2.71-4.64
	c-10.39-6.08-17.03-15.28-26.3-22.59c-0.62-0.49-1.31-0.89-1.95-1.36C1351.51,187.29,1360.83,190.93,1369.22,196.27z M1705.26,142.1
	c7.72-4.8,16.08-8.5,24.58-11.7c4.77-1.79,13.75-6.68,18.86-6.23c14.09,1.25-1.63,22.41-7.01,27.26
	c-6.44,5.8-14.29,10.01-22.21,13.36c-10.21,4.33-20.7,6.39-31.45,6.75c3.53-1.3,7.08-2.48,10.6-3.92c3.15-1.29,1.77-6.49-1.43-5.18
	c-6.6,2.7-13.23,5.11-19.88,7.32C1684.48,158.5,1693.69,149.29,1705.26,142.1z M1658.09,204.7c10.4,4.03,20.52,9.04,30.33,15.13
	c2.94,1.83,5.64-2.81,2.71-4.64c-8.35-5.19-16.97-9.57-25.8-13.31c28.51,0.27,55.16,8.04,79.82,22.7
	C1713.79,242.14,1679.02,232.97,1658.09,204.7z"/>
</svg>
